<?xml version="1.0" standalone="no"?><!DOCTYPE svg PUBLIC "-//W3C//DTD SVG 1.1//EN" "http://www.w3.org/Graphics/SVG/1.1/DTD/svg11.dtd"><svg t="1764349119455" class="icon" viewBox="0 0 1024 1024" version="1.1" xmlns="http://www.w3.org/2000/svg" p-id="6189" xmlns:xlink="http://www.w3.org/1999/xlink" width="200" height="200"><path d="M425 213h222.7C752.2 213 837 297.8 837 402.3V416c0 22.1-17.9 40-40 40H278c-22.1 0-40-17.9-40-40v-16c0-103.3 83.7-187 187-187z" fill="#D48806" p-id="6190"></path><path d="M425 213h155.7C685.2 213 770 297.8 770 402.3V416c0 22.1-17.9 40-40 40H278c-22.1 0-40-17.9-40-40v-16c0-103.3 83.7-187 187-187z" fill="#FAAD14" p-id="6191"></path><path d="M272.7 440.7H787c19.1 0 34.6 15.5 34.6 34.6s-15.5 34.6-34.6 34.6H272.7c-19.1 0-34.6-15.5-34.6-34.6s15.5-34.6 34.6-34.6z" fill="#D4380D" p-id="6192"></path><path d="M272.7 440.7h465c19.1 0 34.6 15.5 34.6 34.6s-15.5 34.6-34.6 34.6h-465c-19.1 0-34.6-15.5-34.6-34.6s15.5-34.6 34.6-34.6z" fill="#FA541C" p-id="6193"></path><path d="M318 491h469c44.2 0 80 35.8 80 80v9c0 44.2-35.8 80-80 80H318c-44.2 0-80-35.8-80-80v-9c0-44.2 35.8-80 80-80z" fill="#AD6800" p-id="6194"></path><path d="M178 533.8c12.4 43.1 31.8 64.6 58.2 64.6 39.7 0 45-81.9 85.1-81.9s40.4 81.9 85.8 81.9 48-81.9 90.7-81.9 46 81.9 89.4 81.9 48.1-81 96-81 48.2 81 96.3 81c32.1 0 53.6-23.5 64.6-70.6-5.2-10.5-14.5-18.7-27.9-24.5-13.4-5.8-212.3-5.8-596.8 0L178 533.8z" fill="#FFF1B8" p-id="6195"></path><path d="M506.1 346.3a15.6 10.5 0 1 0 31.2 0 15.6 10.5 0 1 0-31.2 0Z" fill="#D48806" p-id="6196"></path><path d="M568.6 380.5a15.6 10.5 0 1 0 31.2 0 15.6 10.5 0 1 0-31.2 0Z" fill="#D48806" p-id="6197"></path><path d="M639.8 346.3a15.6 10.5 0 1 0 31.2 0 15.6 10.5 0 1 0-31.2 0Z" fill="#D48806" p-id="6198"></path><path d="M437.8 380.5a15.6 10.5 0 1 0 31.2 0 15.6 10.5 0 1 0-31.2 0Z" fill="#D48806" p-id="6199"></path><path d="M568.6 303.5a15.6 10.5 0 1 0 31.2 0 15.6 10.5 0 1 0-31.2 0Z" fill="#D48806" p-id="6200"></path><path d="M437.8 303.5a15.6 10.5 0 1 0 31.2 0 15.6 10.5 0 1 0-31.2 0Z" fill="#D48806" p-id="6201"></path><path d="M360 346.3a15.6 10.5 0 1 0 31.2 0 15.6 10.5 0 1 0-31.2 0Z" fill="#D48806" p-id="6202"></path><path d="M503.1 343.3a15.6 10.5 0 1 0 31.2 0 15.6 10.5 0 1 0-31.2 0Z" fill="#FFF7E6" p-id="6203"></path><path d="M565.6 377.5a15.6 10.5 0 1 0 31.2 0 15.6 10.5 0 1 0-31.2 0Z" fill="#FFF7E6" p-id="6204"></path><path d="M636.8 343.3a15.6 10.5 0 1 0 31.2 0 15.6 10.5 0 1 0-31.2 0Z" fill="#FFF7E6" p-id="6205"></path><path d="M434.8 377.5a15.6 10.5 0 1 0 31.2 0 15.6 10.5 0 1 0-31.2 0Z" fill="#FFF7E6" p-id="6206"></path><path d="M565.6 300.5a15.6 10.5 0 1 0 31.2 0 15.6 10.5 0 1 0-31.2 0Z" fill="#FFF7E6" p-id="6207"></path><path d="M434.8 300.5a15.6 10.5 0 1 0 31.2 0 15.6 10.5 0 1 0-31.2 0Z" fill="#FFF7E6" p-id="6208"></path><path d="M357 343.3a15.6 10.5 0 1 0 31.2 0 15.6 10.5 0 1 0-31.2 0Z" fill="#FFF7E6" p-id="6209"></path><path d="M277.5 641h510c19.1 0 34.5 15.4 34.5 34.5S806.6 710 787.5 710h-510c-19.1 0-34.5-15.4-34.5-34.5s15.4-34.5 34.5-34.5z" fill="#7CB305" p-id="6210"></path><path d="M277.5 641h462c19.1 0 34.5 15.4 34.5 34.5S758.6 710 739.5 710h-462c-19.1 0-34.5-15.4-34.5-34.5s15.4-34.5 34.5-34.5z" fill="#A0D911" p-id="6211"></path><path d="M348.9 847c-59.1 0-107-50-107-111.7v-5c0-21.8 17-39.6 37.9-39.6h522.8c20.9 0 37.9 17.7 37.9 39.6v3.5c0 62.5-48.5 113.2-108.4 113.2H348.9z" fill="#D48806" p-id="6212"></path><path d="M348.9 847c-59 0-106.9-49.9-106.9-111.5v-5c0-21.8 17-39.5 37.9-39.5h456.3c20.9 0 37.9 17.7 37.9 39.5v3.5c0 62.4-48.5 113-108.4 113H348.9z" fill="#FAAD14" p-id="6213"></path></svg>